<?xml version="1.0" standalone="no"?>
<!DOCTYPE svg PUBLIC "-//W3C//DTD SVG 20010904//EN"
 "http://www.w3.org/TR/2001/REC-SVG-20010904/DTD/svg10.dtd">
<svg version="1.0" xmlns="http://www.w3.org/2000/svg"
 width="500.000000pt" height="500.000000pt" viewBox="0 0 500.000000 500.000000"
 preserveAspectRatio="xMidYMid meet">
<metadata>
Created by potrace 1.11, written by Peter Selinger 2001-2013
</metadata>
<g transform="translate(0.000000,500.000000) scale(0.100000,-0.100000)"
fill="#000000" stroke="none">
<path d="M1040 4980 c-151 -29 -231 -55 -355 -118 -155 -78 -328 -221 -421
-347 -16 -22 -36 -48 -44 -57 -25 -28 -126 -229 -150 -298 -12 -36 -31 -103
-43 -150 -21 -84 -21 -98 -23 -1485 -3 -1486 -4 -1441 42 -1605 123 -435 470
-774 899 -880 155 -39 159 -39 1585 -37 762 2 1396 6 1410 10 14 4 39 10 55
12 437 76 846 459 961 900 43 165 43 155 40 1605 -2 1278 -3 1391 -20 1460 -9
41 -19 86 -22 99 -7 32 -37 108 -81 201 -137 292 -408 533 -716 639 -76 26
-112 35 -242 60 -31 6 -570 10 -1415 9 -1267 0 -1372 -2 -1460 -18z"/>
</g>
</svg>
